<svg width="574" height="632" viewBox="0 0 574 632" fill="none" xmlns="http://www.w3.org/2000/svg">
<path d="M138.866 178.074C135.969 163.711 134.09 154.997 135.78 140C138.019 118.754 148.6 99.2647 165.199 85.8137C160.178 103.205 158.263 120.891 170.487 136.207C171.91 137.99 172.769 137.964 174.83 138.009L182.968 137.815C189.866 126.408 195.812 120.727 206.639 113.267C220.609 105.653 233.646 103.295 249.361 107.571C259.644 110.368 265.695 116.027 272.81 123.469C280.804 122.297 289.409 123.662 296.452 127.554C297.969 128.392 299.35 129.372 300.821 130.212C307.199 136.653 311.302 141.482 313.018 150.757C315.024 161.591 312.454 169.164 306.985 178.303C308.334 180.274 310.201 182.441 312.376 183.378C325.773 189.156 334.818 174.933 336.333 163.64C337.71 153.412 335.707 146.291 333.133 137.043C346.026 148.891 353.714 165.355 354.519 182.846C354.902 192.416 353.396 199.508 350.816 208.456C346.338 223.972 332.216 244.026 346.141 258.588C350.544 263.194 358.735 262.34 362.549 257.457C369.131 249.035 366.502 235.768 365.836 225.876C365.613 222.114 365.613 218.341 365.836 214.578C384.811 246.292 395.656 274.651 386.438 311.553C384.429 319.54 381.738 327.341 378.396 334.867C371.93 349.658 358.142 370.322 366.74 386.045C370.517 392.948 380.192 394.753 385.568 389.899C403.868 373.368 383.191 353.031 396.406 331.794C396.841 347.008 400.964 353.451 407.102 366.862C414.354 382.709 415.956 398.212 412.036 415.225C410.12 423.56 407.772 426.399 405.401 433.247C409.537 433.327 415.595 434.154 419.822 434.633C417.539 424.443 419.687 425.072 427.485 419.564C427.902 419.468 433.506 416.972 434.805 416.487C436.857 415.559 438.539 415.056 440.693 414.377C446.399 402.57 453.148 398.879 466.363 399.484C471.217 393.358 474.923 391.362 482.913 390.309C490.165 389.356 496.001 391.081 502.478 394.244C510.764 384.85 525.617 387.044 534.996 393.516C542.356 392.056 556.067 389.843 563.032 393.979C564.473 394.833 565.643 396.845 565.773 398.546C566.631 409.701 561.619 424.319 555.073 432.982C545.643 445.458 526.336 451.414 511.956 455.744C507.407 457.114 502.361 458.129 497.942 459.564C498.405 461.872 499.127 464.912 497.64 466.992C494.226 471.769 487.579 472.716 482.904 475.978C478.593 478.987 474.97 482.267 470.773 485.372C469.733 486.202 466.733 486.908 465.887 487.665C462.447 490.747 461.49 494.796 457.102 497.135C449.383 501.255 441.008 502.122 432.484 503.017C431.617 507.202 428.843 514.673 427.183 518.712C415.669 546.705 395.042 570.599 369.82 587.18C365.792 589.828 353.022 597.453 348.699 598.9C347.492 599.653 344.039 601.144 342.419 601.983C347.199 564.507 342.974 529.028 334.3 492.488C330.661 477.172 323.903 457.678 324.443 442.156C326.427 447.572 328.087 453.911 330.059 459.524C332.658 466.924 335.892 474.67 338.209 482.07C341.873 493.951 344.777 506.051 346.909 518.299C348.146 525.841 348.909 533.352 349.838 540.928C358.732 545.338 366.234 541.761 373.899 536.546C356.744 519.086 354.297 503.054 358.586 479.854C352.597 486.032 350.942 491.025 348.344 498.907C348.545 492.818 350.007 488.059 351.455 482.199C346.483 485.291 344.817 486.797 340.496 490.71C344.903 482.224 347.452 480.166 355.198 474.685C350.106 466.634 345.351 458.376 340.941 449.93C335.651 439.839 330.701 428.452 323.585 419.635C320.422 415.719 315.672 411.954 311.79 408.624C311.691 409.029 311.589 409.427 311.481 409.828C307.772 423.622 290.791 431.683 279.324 438.33C285.504 437.462 292.1 436.62 298.305 436.456C302.649 436.342 303.779 441.706 304.551 444.98C305.558 449.26 306.48 453.519 307.413 457.786C314.598 491.29 318.727 525.378 319.746 559.629C320.258 574.194 320.203 596.388 318.135 610.911C317.046 611.111 315.719 611.451 314.614 611.698C315.91 605.473 316.401 594.154 316.752 587.729C318.981 546.877 312.734 509.451 305.154 469.67C303.932 463.079 302.584 456.515 301.109 449.976C300.449 447.041 299.602 442.607 298.437 440.008C291.17 440.283 283.885 441.187 276.622 441.675C268.489 442.221 224.89 443.795 221.262 446.967C220.138 447.949 219.955 449.667 220.026 451.068C220.285 456.188 224.249 467.671 225.552 473.25C236.649 522.042 238.51 572.478 231.038 621.952L225.745 621.678C232.813 576.848 231.563 536.777 223.364 492.151C222.015 484.838 220.453 477.564 218.682 470.34C213.844 451.192 207.398 439.894 233.141 439.549C234.72 439.527 237.006 439.221 238.661 439.086C231.52 436.37 222.945 434.54 215.442 431.874C195.946 424.952 177.958 416.623 161.024 404.671C156.437 401.434 150.758 397.58 146.733 393.664C142.078 396.444 136.681 399.046 132.533 401.829C126.015 406.202 122.611 407.047 128.615 413.821C131.773 417.385 131.002 423.582 130.11 428.168C137.584 432.775 139.663 438.212 136.2 446.412C136.393 446.541 136.584 446.671 136.772 446.804C140.966 449.8 142.032 455.244 140.43 459.94C139.612 462.335 138.258 464.032 136.774 466.035C138.283 469.263 140.839 473.892 139.708 477.459C138.258 482.03 132.324 484.68 127.85 483.147C124.582 482.027 123.365 478.786 121.974 475.932C120.005 477.53 116.695 479.616 114.465 480.786C114.921 482.73 115.311 484.64 115.6 486.711C116.941 495.666 112.592 509.726 107.326 516.95C99.1576 528.155 76.1026 521.193 67.4145 514.037C58.3697 506.591 51.3345 495.129 50.0257 483.705C45.1967 496.999 44.6878 509.513 51.7866 522.147C55.6046 528.942 62.5506 536.734 70.511 538.623C81.5497 541.243 96.1315 537.613 105.9 532.124C118.517 524.582 132.486 509.602 140.241 497.107C143.614 491.673 146.452 483.387 148.074 477.373C148.695 486.983 147.431 492.321 144.275 501.267C151.708 495.259 156.826 490.013 163.356 483.19C159.774 493.676 149.833 501.567 143.486 509.96C155.123 508.368 155.65 508.491 166.343 503.375C157.223 513.09 147.188 514.617 134.766 515.743C134.649 522.687 135.13 532.046 134.385 538.786C132.432 556.432 127.052 578.03 121.636 595.08L116.327 592.472C115.252 591.772 111.243 589.791 109.953 589.105C105.725 586.905 101.583 584.544 97.5338 582.032C43.0377 548.294 7.8912 491.01 22.4317 425.927C24.2527 433.479 25.5488 441.144 27.5547 448.732C29.2252 455.052 32.3406 464.616 40.9025 462.875C42.9112 462.468 44.8816 460.659 45.7895 458.891C49.7146 450.587 42.4316 442.607 38.8416 435.691C27.9439 413.485 28.1931 386.261 37.4076 363.533C39.1154 359.32 41.2216 355.494 43.3219 351.547C-4.47702 304.935 39.9702 263.201 68.1079 290.04C73.7362 276.916 75.997 270.198 73.8893 255.947C83.942 265.172 88.0618 275.061 86.2491 288.898C85.5859 293.961 84.6968 298.561 84.2546 303.808C83.5325 312.377 87.6634 321.539 97.2033 322.335C105.428 322.641 111.348 313.985 112.737 306.439C116.774 284.497 100.308 266.903 92.5677 247.94C89.2135 239.709 87.2422 231.487 87.3675 222.586C87.2187 203.178 98.2167 184.667 111.811 171.328C107.471 186.204 102.669 202.775 108.73 218.073C110.943 223.657 115.359 228.681 120.988 230.974C123.115 231.841 128.559 233.1 130.667 232.154C129.916 225.744 128.41 220.236 126.366 214.148C125.508 211.592 122.558 204.31 125.452 202.58C126.229 202.494 127.015 202.562 127.749 202.842C134.23 205.307 140.256 207.65 146.968 209.423C146.843 204.541 146.126 199.692 144.833 194.983C141.457 189.988 139.717 183.968 138.866 178.074Z" fill="black"/>
<path d="M333.133 137.043C346.026 148.891 353.714 165.355 354.519 182.846C354.902 192.416 353.396 199.508 350.816 208.456C346.338 223.972 332.216 244.026 346.141 258.588C350.544 263.194 358.735 262.34 362.549 257.457C369.131 249.035 366.502 235.768 365.835 225.876C365.613 222.114 365.613 218.341 365.835 214.579C384.811 246.292 395.656 274.651 386.438 311.553C384.429 319.54 381.738 327.341 378.396 334.867C371.93 349.658 358.142 370.322 366.74 386.045C370.517 392.948 380.192 394.753 385.568 389.899C403.868 373.368 383.191 353.031 396.406 331.794C396.841 347.008 400.964 353.451 407.102 366.862C414.354 382.709 415.956 398.213 412.036 415.225C410.12 423.56 407.771 426.399 405.401 433.247C399.084 433.648 391.379 432.479 384.528 433.58C378.102 434.574 369.249 435.802 364.836 441.119C361.592 445.032 363.317 450.528 367.4 453.164C376.069 458.765 385.978 452.658 394.292 449.464C397.517 448.223 401.124 447.674 404.506 447.032C396.31 453.614 394.545 455.525 390.629 465.372C389.879 464.937 388.194 463.986 387.444 463.81C381.75 462.474 366.104 469.572 361.355 472.405C358.312 468.754 355.318 463.675 352.97 459.57C349.797 454.117 346.776 448.581 343.906 442.962C337.148 429.664 331.186 415.518 318.635 406.538C316.401 404.94 313.876 403.122 311.836 401.311L311.512 401.021C311.339 398.225 311.852 394.753 312.055 391.954C312.506 385.819 316.505 383.696 320.986 380.151C320.502 382.428 320.107 384.724 319.798 387.032C324.063 382.53 329.309 373.969 332.031 368.328C331.843 371.075 331.766 373.951 331.652 376.713C335.987 369.094 335.682 362.672 338.78 356.586L342.592 354.136C347.9 350.782 354.365 340.897 353.819 334.235C353.528 330.689 342.471 335.457 340.342 334.297C348.409 327.912 361.284 332.501 368.909 327.998C385.2 318.379 377.272 292.653 370.063 279.465C367.425 274.633 363.219 269.561 357.762 268.141C351.594 266.536 346.681 270.126 341.718 273.142C335.667 273.181 327.208 271.379 321.335 269.486C316.737 268.003 313.321 265.008 311.197 260.648C314.2 255.968 317.928 253.298 320.798 247.136C323.461 241.409 326.038 232.067 323.918 225.939L323.609 225.87L322.662 227.468C322.137 227.299 322.113 226.693 322.06 226.108C321.002 214.588 318.193 203.394 318.234 191.76C318.243 188.771 317.499 185.582 314.015 185.199C312.21 186.043 309.951 190.671 308.593 192.593C302.037 201.88 291.512 204.477 283.635 212.428C283.294 206.326 282.436 200.366 282.234 194.245C293.434 190.31 298.932 186.974 306.985 178.303C308.334 180.274 310.201 182.441 312.376 183.379C325.773 189.156 334.818 174.933 336.333 163.64C337.71 153.413 335.707 146.291 333.133 137.043Z" fill="#C0412A"/>
<path d="M73.8893 255.947C83.942 265.172 88.0618 275.061 86.2491 288.898C85.5859 293.96 84.6968 298.561 84.2546 303.808C83.5325 312.377 87.6634 321.539 97.2032 322.335C105.428 322.641 111.348 313.985 112.737 306.439C116.774 284.497 100.308 266.903 92.5677 247.94C89.2135 239.709 87.2422 231.487 87.3675 222.586C87.2187 203.178 98.2167 184.667 111.811 171.328C107.471 186.204 102.669 202.775 108.73 218.073C110.943 223.657 115.359 228.681 120.988 230.974C123.115 231.841 128.559 233.1 130.667 232.154C130.891 234.934 131.65 241.839 131.114 244.33L130.737 244.502L129.341 243.1L128.921 243.305C128.491 245.218 128.961 247.081 129.103 248.998C130.211 263.958 136.007 274.092 148.799 282.001C145.385 281.363 142.814 280.696 139.464 279.782C145.669 285.473 150.411 286.88 158.846 287.57C153.914 299.5 149.775 305.416 141.02 314.701C143.245 314.42 145.744 314.164 147.936 313.806C144.958 320.57 140.863 324.965 138.344 332.402C140.881 331.195 142.737 330.467 145.358 329.501C142.642 340.706 140.591 342.817 140.234 355.497C142.613 353.278 145.031 351.099 147.486 348.964C147.702 353.722 148.026 356.771 149.021 361.555C146.94 364.767 146.76 365.674 145.957 369.448C144.945 374.207 146.629 384.35 143.126 387.717C141.919 388.877 135.922 392.121 134.253 393.093C130.993 395.028 127.805 397.083 124.694 399.252C120.718 387.393 111.183 389.831 106.882 399.74C106.505 400.598 106.154 401.471 105.832 402.351C104.409 399.243 103.04 396.055 101.513 393C98.7808 387.532 97.4473 383.212 91.1198 381.419C89.6934 376.765 88.8673 366.057 88.3386 360.74C86.4623 341.869 83.7426 302.892 68.1079 290.04C73.7362 276.916 75.997 270.198 73.8893 255.947Z" fill="#C0412A"/>
<path d="M43.3219 351.547C44.3912 352.42 44.6137 352.599 45.4109 353.713C52.0208 360.777 59.6606 367.097 66.8698 373.531C69.4297 375.818 74.9395 380.258 76.9114 382.665C78.4628 383.656 79.7672 385.066 81.0865 386.362C80.2502 387.893 79.3435 389.436 78.6955 391.047C80.4961 397.2 86.6253 409.704 89.7039 415.824C82.1993 420.437 78.4828 424.421 76.2634 433.253C75.5672 436.021 75.4863 440.234 73.8615 442.227C73.0832 442.412 69.8355 443.159 69.2741 443.48C63.0996 447.013 59.2109 453.241 55.5349 458.984C52.0446 464.434 51.2009 467.529 48.9345 473.312C48.0127 475.663 45.6732 479.28 44.5104 481.86C40.1035 491.695 39.049 502.705 41.5092 513.198C43.8598 522.912 51.8579 536.604 60.8357 541.613C81.6423 553.219 112.387 541.239 127.162 524.304C128.003 546.513 123.293 571.371 116.327 592.472C115.252 591.772 111.243 589.791 109.953 589.105C105.725 586.905 101.583 584.544 97.5338 582.032C43.0377 548.294 7.8912 491.01 22.4317 425.927C24.2527 433.479 25.5488 441.144 27.5547 448.732C29.2252 455.052 32.3406 464.616 40.9025 462.875C42.9112 462.468 44.8816 460.659 45.7895 458.891C49.7146 450.587 42.4316 442.607 38.8416 435.691C27.9439 413.485 28.1931 386.261 37.4076 363.533C39.1154 359.32 41.2216 355.494 43.3219 351.547Z" fill="#C0412A"/>
<path d="M45.4108 353.713C52.0208 360.777 59.6605 367.097 66.8698 373.531C69.4296 375.818 74.9394 380.258 76.9114 382.665C75.9125 387.93 73.5612 393.892 68.4168 395.673C48.7191 402.493 44.381 373.395 44.922 360.215C45.009 358.095 44.7714 355.309 45.4108 353.713Z" fill="#FEFEFD"/>
<path d="M411.475 502.341C416.891 503.462 427.201 503.909 432.484 503.017C431.617 507.202 428.843 514.673 427.183 518.712C415.669 546.705 395.042 570.599 369.82 587.18C365.792 589.828 353.022 597.453 348.699 598.9C351.05 584.143 350.927 564.15 350.615 549.383C363.589 551.266 369.761 547.702 380.118 540.573L380.611 540.567C389.462 540.462 389.808 538.999 397.097 534.713C411.33 526.338 411.864 518.363 411.475 502.341Z" fill="#C0412A"/>
<path d="M138.866 178.074C135.969 163.711 134.09 154.997 135.78 140C138.019 118.754 148.6 99.2647 165.199 85.8137C160.178 103.205 158.263 120.891 170.487 136.207C171.91 137.99 172.768 137.964 174.83 138.009C166.645 138.811 159.405 140.709 152.934 146.05C143.027 154.228 138.561 165.378 138.866 178.074Z" fill="#C0412A"/>
<path d="M144.833 194.983C146.328 196.686 147.701 198.465 149.372 199.996C157.831 207.744 169.095 209.865 180.182 209.323C180.593 212.497 180.679 216.253 180.647 219.48C171.717 214.306 166.166 212.75 156.015 211.076C154.121 210.764 148.678 209.897 146.968 209.423C146.843 204.541 146.126 199.692 144.833 194.983Z" fill="#C0412A"/>
<path d="M130.421 209.494C135.099 210.93 140.481 213.421 145.22 214.375C170.533 219.467 189.708 224.778 198.432 252.46C198.579 248.154 198.38 243.893 198.627 239.607C200.866 240.425 201.654 240.775 203.727 241.944L200.652 237.65C212.028 233.746 227.36 231.189 239.391 230.937C251.224 231.16 263.529 231.163 275.216 230.495C282.544 230.076 300.635 243.477 301.601 251.463C302.603 259.738 305.223 263.613 310.914 269.453C304.257 270.747 295.455 273.827 291.879 280.026C299.675 274.395 310.83 271.898 320.196 274.219C313.33 278.805 309.874 280.186 305.526 287.484C307.15 286.308 308.573 284.843 310.404 283.704C316.644 279.815 323.199 276.965 330.55 276.675C323.106 282.997 318.983 286.295 314.969 295.511C320.989 288.388 328.448 279.782 338.089 278.34C334.185 282.635 330.818 287.78 327.538 292.537C321.008 302.011 314.052 316.037 321.033 327.072C323.18 330.47 326.56 332.3 329.982 334.148C322.921 334.093 315.87 333.568 308.88 332.581C298.382 331.137 301.51 328.452 297.807 319.953C294.617 312.63 289.55 305.878 286.928 298.264C285.63 294.496 285.843 289.805 283.7 286.369C283.258 285.703 282.549 285.72 281.926 285.675C281.001 286.076 280.26 286.561 279.725 287.446C272.669 299.093 272.704 313.334 274.694 326.165C271.962 324.724 268.804 323.662 266.037 322.197C255.002 316.355 266.379 316.099 268.247 313.062L268.056 312.51C267.963 312.476 267.871 312.442 267.779 312.408C259.585 310.961 251.549 316.525 249.847 324.452C248.648 330.029 250.676 333.682 253.38 337.771C253.141 331.374 253.282 328.893 256.218 323.193C270.989 334.309 296.134 337.33 314.089 339.271C326.8 340.743 335.907 341.098 348.295 337.207C343.335 346.721 339.891 349.248 330.334 353.935C328.103 355.031 323.356 357.941 321.045 359.302C322.131 358.034 324.017 355.975 324.477 354.435L324.131 354.179C321.631 355.858 314.101 360.181 313.185 362.48L313.497 362.993C316.703 363.567 318.44 361.243 320.335 361.218C325.668 361.138 325.93 361.61 330.837 358.743C329.424 363.301 328.254 365.446 326.044 369.621C326.189 367.662 326.186 365.563 326.22 363.588C323.745 368.084 319.996 373.682 316.746 377.62C318.24 374.118 318.783 371.732 319.533 368.044C313.885 374.469 313.527 377.672 306.267 383.159C308.515 378.379 309.907 375.497 311.296 370.322C307.063 376.454 301.402 381.703 296.631 387.439C292.637 391.84 289.029 399.323 284.005 402.585C271.255 410.862 273.067 422.264 269.241 435.481C267.622 435.688 265.776 435.741 264.13 435.833C258.312 405.048 238.949 408.399 214.704 399.336C200.824 394.145 185.545 388.248 173.661 379.222C168.599 375.377 167.708 365.415 167.314 359.49C165.775 365.613 166.006 368.998 166.471 375.179C160.181 365.733 159.36 359.33 160.273 347.964C157.819 354.833 157.383 357.889 157.556 365.15C152.838 356.046 154.269 344.06 156.729 334.457C154.346 337.129 151.834 339.256 149.124 341.558C150.57 334.982 155.899 323.446 158.894 317.111C156.218 319.524 153.737 320.83 150.649 322.626C153.817 316.031 160.11 307.973 163.976 300.147C161.734 302.255 159.506 304.378 157.292 306.515C158.483 303.359 164.986 287.948 166.922 286.219C168.53 284.783 171.192 284.042 173.161 283.146C164.077 282.956 157.063 280.699 149.524 275.441C142.446 270.463 137.625 262.889 136.113 254.37C137.589 255.904 140.206 257.955 141.909 259.372C134.869 248.131 138.529 238.602 135.646 225.804C134.495 220.694 130.782 213.283 130.421 209.494Z" fill="#FEFEFD"/>
<path d="M139.513 218.196C150.805 221.93 163.139 224.339 171.98 233.086C182.078 243.078 184.659 252.112 185.05 265.548C184.093 264.395 183.141 263.175 182.202 262.002C180.98 265.707 180.328 270.372 179.671 274.267C169.184 274.458 164.23 275.115 155.688 268.522C161.163 270.198 164.731 270.832 170.397 271.012C168.331 268.983 165.543 266.843 163.268 264.697C160.236 261.597 156.587 256.28 154.578 252.484C158.942 255.409 163.327 258.301 167.734 261.16C164.695 249.586 160.28 243.333 150.489 237.039C159.584 238.839 164.6 241.314 171.072 248.082C163.396 227.258 141.492 222.929 139.513 218.196Z" fill="black"/>
<path d="M229.627 246.297C235.324 246.957 241.54 250.108 246.076 253.529C245.059 251.416 243.799 249.161 242.689 247.076C248.978 251.471 251.914 253.51 256.586 259.797C256.023 257.535 254.861 254.759 254.006 252.535C260.216 259.03 263.737 264.418 264.6 273.533C257.629 267.84 255.136 264.651 246.198 260.386C242.363 258.75 239.193 257.851 235.061 257.353C226.229 256.288 215.675 263.382 209.04 268.96C210.221 264.749 211.37 262.942 213.418 259.056C211.877 260.271 210.565 261.226 208.948 262.341C211.531 257.319 212.663 258.165 216.251 254.415L216.148 254.06L214.316 253.919L214.375 253.516C216.077 251.981 220.986 251.634 223.753 251.001C222.575 250.123 220.952 249.123 219.687 248.299C224.813 248.661 228.417 249.062 233.478 250.245C232.417 249.318 229.942 247.454 229.627 246.297Z" fill="black"/>
<path d="M230.925 265.173C232.792 264.96 234.681 265.044 236.521 265.422C245.112 267.257 247.987 275.39 252.496 282.443C249.989 281.247 247.998 280.204 245.579 278.836C241.814 282.741 239.882 285.257 234.007 284.611C225.666 280.818 227.999 275.335 230.188 268.333C225.479 271.77 223.426 273.771 219.925 278.448C221.121 271.767 224.049 267.177 230.925 265.173Z" fill="black"/>
<path d="M236.879 270.764C239.498 272.019 238.64 273.941 237.305 275.778C234.339 274.58 235.433 272.603 236.879 270.764Z" fill="#FEFEFD"/>
<path d="M267.59 372.479L267.851 372.929C267.554 373.778 267.262 374.235 266.681 374.938C256.672 387.088 245.097 388.424 230.93 390.266L230.6 389.911C232.28 387.069 259.088 378.95 263.102 375.451C263.528 375.08 266.886 372.969 267.59 372.479Z" fill="black"/>
<path d="M193.723 340.993L193.982 341.422C193.637 343.033 191.9 346.054 191.091 347.692C189.29 351.343 188.465 353.244 187.495 357.151L197.512 350.603C194.779 354.571 190.556 359.259 187.461 363.44C185.069 366.973 183.269 369.504 181.729 373.54C181.564 360.363 183.068 349.803 193.723 340.993Z" fill="black"/>
<path d="M248.689 288.817C248.888 289.045 249.011 289.343 248.927 289.66C245.409 302.979 225.749 309.229 216.224 298.519C215.236 297.084 214.507 295.334 213.769 293.744C219.661 299.057 223.67 300.376 231.775 299.4C239.497 298.47 244.061 294.869 248.689 288.817Z" fill="black"/>
<path d="M278.627 370.572C278.622 370.874 278.674 371.158 278.522 371.433C273.635 380.234 265.989 387.14 256.558 390.729C252.496 392.275 248.783 393.556 244.935 395.074L244.955 394.534C246.531 392.979 252.331 389.356 254.39 387.952C262.898 382.156 270.923 377.481 278.627 370.572Z" fill="black"/>
<path d="M303.321 371.498C303.283 372.692 302.046 375.21 301.566 376.417C296.778 388.476 286.062 392.426 276.93 400.558C277.114 395.716 299.701 375.753 303.321 371.498Z" fill="black"/>
<path d="M256.367 304.658L257.196 304.738L257.211 305.063C256.238 305.9 254.118 306.747 252.936 307.176C242.073 311.121 235.433 319.981 236.457 331.744C236.602 333.417 237.188 335.148 237.272 336.808L236.807 336.858C232.448 329.152 232.04 321.706 237.526 314.195C241.978 308.094 249.125 305.705 256.367 304.658Z" fill="black"/>
<path d="M203.776 357.062C204.198 357.145 203.978 357.043 204.352 357.506C203.668 358.873 198.601 362.434 197.094 363.98C195.657 365.452 194.933 366.199 193.545 367.939C200.821 362.854 203.093 362.761 211.781 361.848C209.371 363.409 202.952 366.366 200.195 367.532C191.897 370.47 191.317 370.374 185.882 377.494C188.938 366.363 192.478 360.731 203.776 357.062Z" fill="black"/>
<path d="M294.925 372.17C294.989 372.321 295.052 372.473 295.115 372.624C290.087 382.641 286.364 387.063 276.607 392.911C274.57 394.13 270.159 396.959 268.434 398.422L268.126 398.685L267.897 398.249C268.608 396.731 270.74 394.926 271.867 393.596C278.776 385.437 287.157 379.394 294.925 372.17Z" fill="black"/>
<path d="M287.212 371.195L287.448 371.717C283.55 380.018 276.098 387.733 268.012 391.982C264.745 393.701 261.254 395.315 258.128 397.231L257.752 397.466C257.623 397.345 257.595 397.151 257.529 396.987C258.497 395.768 259.406 395.099 260.527 394.09C269.365 386.131 278.909 379.762 287.212 371.195Z" fill="black"/>
<path d="M197.2 305.8L197.753 305.92C197.724 307.483 193.461 310.34 192.083 311.785C186.515 317.62 181.414 323.962 176.036 329.982L175.728 330.056L175.487 329.538L175.658 329.881C175.408 328.797 175.656 328.273 176.002 327.208C179.851 315.336 186.954 311.201 197.2 305.8Z" fill="black"/>
<path d="M191.34 331.751L191.518 331.92C191.508 332.553 188.087 338.574 187.534 339.567C183.652 346.551 180.742 353.365 177.94 360.83C176.817 359.083 177.838 355.034 178.176 352.926C179.832 342.61 182.795 337.66 191.34 331.751Z" fill="black"/>
<path d="M244.491 376.79L244.842 376.895C244.855 377.598 244.836 377.694 244.221 378.361C237.927 385.19 225.425 385.575 216.895 386.406L216.337 386.149C217.072 384.295 232.965 380.913 236.14 379.953C239.001 379.117 241.794 378.061 244.491 376.79Z" fill="black"/>
<path d="M188.609 322.447L188.918 322.576C188.823 323.397 183.077 331.081 181.975 332.741C179.495 336.5 177.125 340.33 174.867 344.224L174.689 344.255L174.351 343.949C174.525 335.383 181.758 326.903 188.609 322.447Z" fill="black"/>
<path d="M289.741 292.556C293.437 293.438 295.835 294.006 298.83 296.577C302.457 299.693 305.026 306.283 305.19 310.97C301.609 307.913 299.109 298.5 293.119 296.148C292.031 295.721 289.975 293.85 289.741 292.556Z" fill="black"/>
<path d="M225.597 369.831C226.526 369.661 226.478 369.664 227.412 369.803L227.417 370.149C224.723 373.096 215.058 373.787 210.229 375.413C209.839 375.642 209.76 375.614 209.307 375.728L209.233 375.305C213.214 370.328 219.74 370.334 225.597 369.831Z" fill="black"/>
<path d="M211.4 367.007C213.662 366.921 215.745 366.847 218.006 366.884C212.791 369.843 209.227 370.328 203.619 372.167C202.12 372.985 200.553 374.09 199.163 375.077C199.554 374.5 199.955 373.935 200.368 373.377C203.094 369.723 206.933 367.634 211.4 367.007Z" fill="black"/>
<path d="M241.605 284.846L241.855 285.183C241.181 288.908 233.37 291.024 230.157 289.944C227.657 289.104 227.194 288.967 225.239 287.309C225.016 286.991 224.735 286.487 224.526 286.139L224.66 285.736C226.669 286.392 227.284 287.192 229.622 287.645C234.543 288.599 237.611 287.369 241.605 284.846Z" fill="black"/>
<path d="M273.177 235.949C278.411 236.605 284.991 247.146 285.828 252.231C284.935 251.682 280.624 245.123 279.424 243.559C277.689 241.297 274.553 238.143 273.177 235.949Z" fill="black"/>
<path d="M264.592 237.341C270.819 238.336 279.042 246.997 280.483 253.106C278.226 251.436 275.087 246.498 272.655 244.16C271.128 242.693 265.093 238.666 264.592 237.341Z" fill="black"/>
<path d="M260.783 241.045C266.778 242.557 272.541 247.912 274.057 253.965C271.737 251.562 270.208 249.007 267.423 246.7C265.764 245.326 261.43 242.56 260.783 241.045Z" fill="black"/>
<path d="M315.018 355.824C315.222 356.052 315.086 355.873 315.243 356.46C313.734 359.975 309.485 362.36 306.165 363.807C306.02 363.616 306.005 363.369 305.942 363.098C306.967 361.332 313.086 357.222 315.018 355.824Z" fill="black"/>
<path d="M282.548 238.735C286.143 239.194 290.582 248.168 291.562 251.329C290.659 250.601 283.903 240.556 282.548 238.735Z" fill="black"/>
<path d="M232.915 111.533C252.102 110.372 263.367 119.472 274.436 134.006C276.633 136.891 278.293 139.505 280.13 142.602C279.338 136.744 278.483 134.217 276.741 128.553C282.4 128.547 287.842 129.145 292.888 131.701C307.263 138.985 311.858 156.711 304.362 170.643C299.142 180.344 291.586 185.222 281.426 188.434C281.166 185.429 281.29 182.939 281.509 179.947C287.649 176.136 291.416 172.823 294.092 165.941C290.735 168.543 288.286 171.173 284.431 173.268C275.843 177.934 268.343 178.546 260.51 172.488C266.582 165.26 268.805 160.304 269.916 151.107C266.93 155.947 265.268 159.737 261.303 164.2C255.304 170.954 246.224 177.182 236.912 177.433C225.169 177.751 213.766 175.703 204.803 167.84C202.283 165.355 200.613 163.031 198.622 160.122C198.721 160.733 198.827 161.342 198.939 161.95C200.446 170.003 206.206 174.729 212.659 179.16C209.978 180.008 206.17 181.793 203.142 182.847C203.909 179.81 204.148 178.044 204.208 174.943C198.034 184.767 191.254 191.305 178.749 192.025C169.534 192.555 164.003 187.985 157.547 182.06C161.471 191.906 168.661 194.441 178.268 196.797C178.512 199.043 178.599 200.912 178.678 203.175C173.1 203.404 168.003 203.271 162.809 201.139C156.439 198.526 150.04 192.93 147.474 186.482C144.576 179.197 144.653 170.244 147.841 163.085C160.12 135.515 186.312 148.385 207.523 139.613C202.719 138.685 195.991 138.36 191.003 138.029C192.167 135.484 194.118 132.833 195.877 130.668C205.145 119.263 218.408 112.946 232.915 111.533Z" fill="#FEFEFD"/>
<path d="M243.827 180.038C255.951 179.376 263.609 180.266 275.346 182.534C275.64 184.559 275.817 186.887 275.953 188.932C276.721 200.469 278.386 212.285 278.828 223.817C262.019 226.495 245.09 224.674 228.181 225.816C217.323 226.549 207.264 229.493 196.721 231.832C195.734 232.051 194.134 232.261 193.29 231.654C193.988 229.638 203.739 226.285 206.424 224.933C202.241 225.283 198.241 226.657 194.19 227.661C193.272 227.889 191.223 228.869 190.517 228.224C189.97 227.724 189.713 227.384 189.51 226.676C191.78 224.417 200.695 222.046 204.598 219.405L204.941 219.169C200.007 219.748 194.005 222.116 189.187 223.44C188.083 223.743 187.87 223.762 187.157 223.298C186.673 222.129 186.636 222.649 186.931 221.682C188.06 220.501 189.453 219.928 190.922 219.165C194.072 217.593 199.957 215.333 202.443 213.755L202.491 213.414C197.664 213.288 187.786 218.402 186.112 217.826C185.711 216.897 185.781 216.872 185.898 215.897C187.871 214.219 200.075 209.703 203.495 208.1C199.471 208.445 194.849 209.713 190.971 210.857C189.462 211.301 186.563 212.794 185.54 212.829C184.99 211.881 185.174 210.11 186.231 209.574C191.465 206.922 197.04 204.842 202.076 201.801C197.767 202.805 193.36 203.995 189.232 205.595C188.104 206.033 186.04 207.011 184.922 207.084C184.526 206.441 184.571 205.908 184.761 205.159C185.521 202.153 198.284 198.008 201.492 195.634L201.839 195.373C196.097 197.011 190.184 199.609 185.045 201.022L184.671 200.554C184.176 196.096 190.828 194.275 194.294 192.708C210.198 185.52 226.448 181.467 243.827 180.038Z" fill="#FEFEFD"/>
<path d="M112.832 413.013C116.987 412.658 121.83 412.92 124.173 416.617C129.78 425.458 121.921 427.378 115.214 429.257C110.68 430.528 106.133 432.056 101.804 433.775C101.241 433.997 101.232 434.574 101.152 435.037C104.61 440.795 124.095 428.587 129.152 433.127C130.773 434.583 132.273 436.173 132.541 438.425C133.916 450.016 117.819 449.72 111.701 455.491C111.219 455.95 111.435 456.358 111.568 456.824C113.438 457.833 120.062 455.599 122.381 454.855C125.114 453.981 129.762 450.414 132.963 450.849C133.905 450.97 134.951 451.686 135.416 452.528C139.947 460.743 124.867 467.807 120.001 470.581C117.19 472.204 114.398 473.864 111.629 475.558C106.827 478.104 102.5 478.916 97.1236 477.956C95.4652 477.66 93.6447 477.24 92.0082 477.561L91.7623 477.993C92.7143 480.73 98.7478 482.823 101.312 483.745C100.106 487.498 98.4935 493.145 96.5481 496.416C82.5585 495.037 71.2325 480.514 70.0055 467.029C69.3969 460.345 70.2644 456.182 75.6896 451.849C76.6849 455.518 77.5231 457.734 79.1361 461.162C78.9053 458.28 78.3115 454.682 78.5164 451.806C79.0377 444.492 81.1004 432.602 85.4461 426.742C90.5951 419.799 104.562 414.124 112.832 413.013Z" fill="#FEFEFD"/>
<path d="M95.5352 441.78C97.5504 442.94 99.7726 450.445 99.1021 452.587C96.8221 450.124 94.1873 445.085 95.5352 441.78Z" fill="black"/>
<path d="M560.026 404.573C560.446 405.014 560.36 404.773 560.372 405.415C560.496 412.707 553.163 428.174 548.102 433.33C533.147 448.556 482.823 457.799 461.45 457.999C450.065 458.104 442.798 455.355 434.595 447.3C429.846 442.406 427.062 438.521 424.096 432.445C424.655 432.627 425.217 432.8 425.781 432.96C437.848 436.376 464.943 432.803 477.198 430.729C505.098 426.007 535.199 418.524 560.026 404.573Z" fill="#FEFEFD"/>
<path d="M487.838 450.667L488.104 450.843L487.949 451.226C485.462 452.167 480.981 452.997 478.312 453.466C469.446 455.028 459.629 456.805 450.831 454.238C449.889 453.793 449.96 453.991 449.423 453.256C450.695 452.318 455.222 452.79 456.993 452.898C467.369 453.531 477.596 452.272 487.838 450.667Z" fill="black"/>
<path d="M466.282 435.846C467.214 435.707 467.622 435.559 468.511 435.879C467.483 436.929 464.381 437.166 462.866 437.481C453.047 439.515 443.798 439.718 433.836 439.126C432.626 438.629 432.197 438.561 431.608 437.586L431.895 437.126C437.286 437.089 442.653 437.469 448.069 437.395C454.272 437.308 460.144 436.645 466.282 435.846Z" fill="black"/>
<path d="M439.851 447.492C451.633 447.661 459.783 448.309 471.914 447.621L472.646 448.047L472.717 448.384C466.205 450.016 453.38 451.263 446.834 450.019C444.162 449.513 442.31 448.649 439.851 447.492Z" fill="black"/>
<path d="M466.273 442.814C460.558 444.394 439.826 446.705 435.765 442.872L435.857 442.307C436.681 442.07 438.962 442.165 439.894 442.252C447.927 443.005 454.926 442.459 462.885 442.199C464.057 442.255 465.375 442.144 466.273 442.814Z" fill="black"/>
<path d="M462.885 442.199C465.147 441.86 468.591 441.295 470.779 441.659L470.677 442.224L470.535 442.258L470.427 441.613L470.276 441.598L470.05 442.354C469.051 442.486 467.211 442.789 466.273 442.814C465.375 442.144 464.057 442.255 462.885 442.199Z" fill="#201F1F"/>
<path d="M471.914 447.621C473.865 447.226 476.775 446.899 478.772 446.853C476.821 447.504 474.778 448.263 472.717 448.384L472.646 448.047L471.914 447.621Z" fill="#201F1F"/>
<path d="M415.027 447.449C417.847 447.294 425.047 448.26 427.707 449.757C428.408 450.149 428.383 450.828 428.423 451.445C427.328 454.185 422.871 456.765 420.347 458.382C421.254 459.141 422.152 459.913 423.041 460.693C422.504 462.656 421.955 464.616 421.39 466.572C423.31 463.918 423.973 463.131 426.763 461.456C433.009 462.755 440.314 465.446 446.769 465.236C450.217 465.125 454.46 464.353 458.197 464.091C456.321 465.742 455.744 466.122 453.661 467.359C451.812 468.461 444.128 470.633 443.511 471.772C444.31 472.13 449.982 470.578 451.343 470.257C447.232 475.821 442.273 476.614 437.218 482.468C440.625 480.823 442.063 480.536 445.844 479.721L444.489 487.581C449.254 480.567 454.583 472.006 461.511 467.229C468.767 462.233 475.102 466.22 467.683 473.59C466.896 474.373 464.826 477.62 464.11 478.7C462.446 481.273 458.503 487.763 456.583 489.615C447.615 498.252 427.716 498.194 415.937 497.175C411.04 496.753 404.022 495.524 399.501 495.564L399.097 495.571C400.578 497.2 402.877 498.873 404.651 500.258C401.871 503.029 394.656 507.868 390.993 510.994C388.965 507.674 387.32 504.134 386.089 500.44C383.864 493.673 380.111 474.213 389.894 471.287L390.366 471.652C390.752 473.157 390.545 475.426 390.484 477.064L391.576 474.176C396.452 461.619 402.396 453.065 415.027 447.449Z" fill="#FEFEFD"/>
<path d="M409.419 468.22C419.026 467.328 425.553 471.738 431.426 478.919C425.257 475.7 421.498 473.71 414.576 472.547C406.713 471.343 399.81 475.099 395.005 481.11C397.689 473.972 402.161 470.22 409.419 468.22Z" fill="black"/>
<path d="M353.572 272.534C363.749 271.499 368.631 286.622 370.9 294.357C373.174 302.111 374.498 311.803 370.508 319.253C366.363 326.992 359.173 324.872 351.945 325.755C348.091 326.214 345.909 326.785 342.234 327.801C338.527 328.662 334.454 329.618 330.825 328.075C308.224 318.475 341.545 277.213 353.572 272.534Z" fill="#FEFEFD"/>
<path d="M348.233 290.332L348.85 290.754C349.458 293.873 346.671 307.997 345.273 311.513C343.811 315.191 340.595 319.444 335.987 317.524C329.353 309.81 342.237 294.748 348.233 290.332Z" fill="black"/>
<path d="M360.79 290.557C365.61 293.457 368.397 303.392 367.844 308.776C367.536 311.772 366.595 313.454 364.283 315.256C354.062 315.932 356.784 294.835 360.79 290.557Z" fill="black"/>
<path d="M152.256 368.911C154.047 370.109 158.153 376.018 160.893 378.215C178.505 392.294 200.793 402.048 222.377 408.343C240.53 413.639 253.768 414.494 258.723 436.456C254.19 436.247 248.146 434.867 243.656 434.025C223.467 430.235 204.756 423.782 186.55 414.185C176.534 409.365 157.317 397.601 150.578 388.822L150.856 384.705C156.078 390.362 171.686 402.101 178.944 404.239C176.457 402.187 173.624 400.493 171.001 398.638C164.728 394.201 155.966 387.942 151.288 381.857C151.094 380.453 150.938 379.891 151.176 378.493C151.703 378.194 153.673 380.329 154.418 381.045C159.678 386.088 173.74 397.567 180.401 399.215C171.502 393.037 158.017 383.529 151.653 374.698C151.693 372.297 151.765 371.232 152.256 368.911Z" fill="#FEFEFD"/>
<path d="M517.325 392.655C524.281 392.51 529.697 395.034 535.243 399.039C537.196 400.45 543.442 404.208 543.198 406.779C541.844 408.165 534.338 410.609 532.052 411.374C502.932 421.119 471.146 428.316 440.452 429.615C440.659 427.961 441.002 426.325 441.474 424.727C443.363 418.348 446.819 409.735 453.087 406.659C462.234 402.165 469.767 404.779 478.728 407.498C475.071 409.325 473.084 410.874 469.912 413.485C468.31 414.981 460.91 422.301 462.801 424.545C466.285 423.483 474.92 411.031 483.49 410.633C491.619 410.257 495.976 414.34 504.065 413.954C505.206 413.898 505.586 413.889 506.302 413.13C505.62 412.55 498.828 411.476 497.121 410.525C488.909 405.955 479.966 403.613 471.427 400.197C478.633 392.377 492.878 393.701 501.207 398.805C510.527 404.511 514.051 409.633 525.432 410.485C522.766 408.658 519.649 406.964 517.103 404.977C513.409 402.094 509.74 398.953 506.141 395.938C510.03 393.568 512.86 392.96 517.325 392.655Z" fill="#FEFEFD"/>
<path d="M524.01 403.52C526.022 403.344 533.403 402.292 534.187 404.536L533.798 405.14C531.694 405.27 524.932 406.153 523.803 404.44L524.01 403.52Z" fill="black"/>
<path d="M447.917 420.62C448.92 420.508 449.599 420.295 450.442 420.789C450.979 421.681 450.874 421.206 450.723 422.271C450.028 423.31 449.914 423.348 448.877 424.094C448.399 424.394 447.914 424.684 447.427 424.968L446.844 424.779C446.476 423.536 447.387 421.795 447.917 420.62Z" fill="black"/>
<path d="M485.777 414.185C486.462 414.188 486.286 414.201 486.965 414.423C487.344 415.5 487.32 414.969 487.048 416.074C485.94 416.873 484.194 416.657 482.715 416.669L482.157 416.929L481.669 416.71L481.709 416.092C483.181 414.509 483.669 414.593 485.777 414.185Z" fill="black"/>
<path d="M459.49 415.401C460.4 415.91 460.138 415.546 460.394 416.463C459.811 417.904 458.188 418.654 456.845 419.246C456.108 418.888 456.376 419.036 455.818 418.33C455.799 416.321 457.845 415.765 459.49 415.401Z" fill="black"/>
<path d="M494.399 399.78C495.618 400.049 496.383 400.218 496.954 401.345C496.593 402.668 496.606 402.332 495.464 403.443C494.399 403.712 494.257 403.712 493.433 403.165C492.881 401.783 493.6 400.869 494.399 399.78Z" fill="black"/>
<path d="M463.486 407.347C463.777 407.322 464.067 407.3 464.357 407.279C465.748 407.189 466.264 407.109 467.233 407.955C467.288 409.069 467.202 408.816 466.579 409.967C465.329 410.075 464.536 410.183 463.517 409.519C463.054 408.418 463.206 408.745 463.486 407.347Z" fill="black"/>
<path d="M478.559 398.108C478.852 398.08 479.145 398.052 479.438 398.027C480.74 397.926 481.648 397.83 482.657 398.685C483.107 399.774 482.987 399.385 482.756 400.712C480.416 401.126 479.102 400.376 478.559 398.108Z" fill="black"/>
<path d="M453.195 410.67C454.049 410.797 453.698 410.618 454.302 411.192L454.21 411.951C453.333 413.253 452.957 413.451 451.719 414.407L450.874 414.04C450.34 413.155 450.405 413.611 450.639 412.627C451.559 411.51 451.902 411.411 453.195 410.67Z" fill="black"/>
<path d="M516.035 397.139C517.279 397.203 518.171 397.132 518.887 398.213C518.766 399.268 518.307 399.611 517.6 400.419C515.563 400.573 515.236 398.753 516.035 397.139Z" fill="black"/>
<path d="M476.513 417.716C477.63 417.876 477.843 418.484 478.034 419.416C477.392 420.845 477.716 420.354 476.256 421.305C475.25 421.089 475.232 420.839 475.025 419.99C475.377 418.749 475.565 418.669 476.513 417.716Z" fill="black"/>
<path d="M527.284 397.463C528.487 397.385 528.953 397.237 529.839 398.033C529.401 398.888 529.345 398.685 528.253 399.222C527.447 399.549 527.216 399.601 526.401 399.799L525.904 399.484C526.204 398.296 526.312 398.493 527.284 397.463Z" fill="black"/>
<path d="M364.441 477.469C368.224 474.525 376.269 471.655 380.942 469.704C377.93 479.626 377.278 486.594 379.479 497.018C381.738 507.717 389.66 520.548 399.078 526.362L396.19 528.501C391.351 525.264 389.203 522.749 385.222 518.518L384.821 519.558C387.897 523.535 390.397 526.276 394.224 529.497L390.551 531.83C384.497 525.51 381.441 521.681 376.177 514.765C379.142 521.934 384 526.952 389.116 532.654C387.783 533.268 386.882 533.809 385.638 534.549C381.658 530.602 377.948 526.433 374.8 521.789C373.992 520.598 373.183 519.416 372.193 518.367C372.106 521.539 381.568 532.364 383.972 535.08L379.917 535.302C373.449 531.954 367.335 520.897 364.725 514.216C360.852 504.307 360.136 487.356 364.441 477.469Z" fill="#FEFEFD"/>
<path d="M381.133 513.444C382.531 515.105 383.895 516.799 385.222 518.518L384.821 519.558C383.154 517.363 382.318 515.904 381.133 513.444Z" fill="#201F1F"/>
<path d="M65.8384 452.318C66.0893 453.04 65.6489 455.475 65.4974 456.321C61.7198 477.391 75.8297 501.783 98.9088 501.851C102.626 501.863 106.316 501.07 109.611 498.851C109.244 499.73 108.474 501.579 107.851 502.181C104.356 505.551 96.4758 504.637 91.8727 504.764C96.8097 506.572 100.238 506.473 105.489 505.476C106.122 505.356 105.847 505.325 106.475 505.48L106.486 506.112C103.863 510.152 94.3514 509.513 89.9115 509.578C94.8164 511.238 99.5121 511.136 104.5 510.022C99.738 515.666 95.5312 513.114 91.0212 514.065L91.087 514.429C93.4058 515.654 98.5391 514.771 100.415 515.694C99.5948 517.006 97.5405 517.37 96.0604 517.728C73.8605 519.335 56.2776 502.141 53.8007 480.49C53.3372 476.438 54.3411 473.355 55.7378 469.596C56.7445 477.012 57.8678 480.752 61.3137 487.368C59.2334 478.567 55.3184 471.235 59.1334 462.332L59.1494 462.567C59.5444 468.927 61.7948 478.508 65.0953 483.832C63.0424 476.527 61.0359 468.856 61.5824 461.162C61.8503 457.385 63.5411 455.16 65.8384 452.318Z" fill="#FEFEFD"/>
<path d="M313.669 193.416C314.515 194.494 313.848 204.101 314.098 206.509C316.132 226.022 321.832 235.533 309.614 252.764C307.115 244.02 302.266 241.574 296.299 235.58C296.072 228.668 296.919 223.981 300.322 217.986C302.512 214.596 305.332 212.257 307.276 209.057C298.311 216.169 292.187 220.043 290.249 231.762C288.178 230.199 286.583 229.039 284.733 227.183C286.247 213.828 293.282 211.908 303.327 204.771C307.143 202.059 311.123 197.348 313.669 193.416Z" fill="#FEFEFD"/>
<path d="M75.5218 367.495C75.3551 367.264 75.1919 367.026 75.032 366.788C61.4998 346.751 47.9293 325.054 40.5686 301.877C39.9236 299.846 37.9593 291.432 40.1137 290.142C46.0447 291.268 59.3393 317.358 61.3128 323.354C63.0632 326.082 64.7719 330.303 66.0156 333.34C72.2543 348.575 77.8576 364.286 83.4655 379.774C82.2002 377.935 75.9177 368.871 75.5218 367.495Z" fill="#FEFEFD"/>
<path d="M61.3128 323.354C63.0632 326.082 64.7719 330.303 66.0156 333.34C72.2543 348.575 77.8576 364.286 83.4655 379.774C82.2002 377.935 75.9177 368.871 75.5218 367.495C75.6032 364.761 70.27 355.133 68.8945 351.954C65.2431 343.517 60.7687 332.608 61.3128 323.354Z" fill="#C0412A"/>
<path d="M305.476 394.34C305.528 399.691 296.565 408.103 294.123 411.929C298.295 408.569 302.259 405.387 305.448 401.024C303.466 411.322 296.522 413.127 292.246 419.623C300.467 414.528 301.067 412.534 307.003 405.937C305.782 410.856 304.433 413.099 301.197 417.021C294.407 424.554 284.089 430.883 274.756 434.917C276.074 429.649 277.139 424.468 279.105 419.413C282.471 410.76 288.899 408.538 295.821 403.332C299.635 400.462 302.297 397.916 305.476 394.34Z" fill="#FEFEFD"/>
<path d="M35.8778 293.014C36.6246 294.317 36.9841 299.727 37.6618 301.909C45.0392 325.678 58.4498 347.507 72.7011 367.726C74.249 369.921 77.9421 375.522 77.9424 376.589L77.2326 375.963C73.0264 371.522 68.9383 365.992 64.9181 361.286C51.8806 346.035 26.077 314.806 35.8778 293.014Z" fill="#FEFEFD"/>
<path d="M280.908 293.053C281.429 294.032 282.686 298.502 283.103 299.858C284.039 302.993 285.137 306.078 286.394 309.1C288.339 313.825 291.335 318.086 293.138 322.845C294.557 326.591 293.616 328.699 290.281 330.584C271.889 333.831 277.26 302.52 280.908 293.053Z" fill="#FEFEFD"/>
<path d="M388.743 437.102C390.579 436.87 394.613 436.978 396.529 436.941C405.642 436.762 413.45 437.601 422.331 439.515C423.362 440.721 423.918 441.669 424.757 442.999C416.798 440.956 406.698 440.94 398.64 441.983C391.341 443.06 385.265 446.785 377.766 448.609C373.847 449.559 363.873 449.053 368.619 442.594C371.381 438.833 383.691 437.463 388.743 437.102Z" fill="#FEFEFD"/>
<path d="M377.226 440.459C379.016 440.373 380.843 440.465 381.935 442.033C382.238 445.159 379.213 446.112 376.806 446.918C374.856 447.066 373.029 447.211 372.048 445.196C371.807 442.057 374.751 441.07 377.226 440.459Z" fill="black"/>
<path d="M66.5985 293.091C66.6556 293.188 66.709 293.287 66.7698 293.382C68.8233 296.602 71.6229 299.219 73.4261 302.679C80.7782 316.787 84.7774 347.575 85.5066 363.499C79.125 343.104 77.1314 319.29 64.342 300.942C64.8469 300.093 66.0625 294.625 66.5985 293.091Z" fill="#C0412A"/>
<path d="M63.1919 304.756C64.6062 308.41 67.8801 312.411 69.475 316.753C73.6451 328.106 76.8278 339.478 79.5006 351.269C81.0584 357.83 83.1513 365.187 83.6759 371.92C78.1797 357.691 73.4961 343.064 67.2663 329.106C65.5462 325.249 63.1465 319.03 61.0011 315.617C61.6853 314.043 62.5102 307.206 63.1919 304.756Z" fill="#C0412A"/>
<path d="M92.5819 385.551C95.3507 386.915 103.796 405.841 104.951 409.445C103.212 410.226 101.461 410.8 99.5955 411.664C96.7428 405.27 93.1136 398.814 89.4351 392.864C90.6849 397.166 97.8137 409.371 97.7362 412.364L97.2057 412.432C96.1336 411.433 95.6093 409.924 94.9788 408.55C93.5478 405.844 87.9779 394.056 86.3315 392.179L85.9118 392.429C85.6813 395.775 93.6994 409.72 94.7619 414.697L94.8477 415.114C90.846 410.201 88.9031 403.764 86.0303 398.345C81.7963 390.356 83.3631 387.137 92.5819 385.551Z" fill="#FEFEFD"/>
<path d="M31.5471 310.973C32.0637 311.464 33.1451 315.673 33.4296 316.627C38.1484 332.488 48.7168 345.31 58.6779 358.166C61.9812 362.431 65.943 366.585 69.0818 371.053C67.0885 370.05 51.2717 355.244 49.1717 353.133C37.9315 341.978 31.5903 326.81 31.5471 310.973Z" fill="#FEFEFD"/>
<path d="M42.668 288.023C51.5526 290.751 58.6449 296.607 63.1919 304.756C62.5102 307.206 61.6853 314.043 61.0011 315.617C54.8312 303.757 52.2951 297.726 42.668 288.023Z" fill="#FEFEFD"/>
<path d="M31.3914 293.714C31.6281 295.115 29.9849 301.793 29.6821 303.727C27.3878 318.379 31.3019 326.958 36.878 339.755L35.4868 338.04C26.2144 323.986 20.4952 308.525 31.3914 293.714Z" fill="#FEFEFD"/>
<path d="M115.025 395.91C121.81 395.762 120.626 404.06 120.628 408.915C118.475 408.313 117.843 408.168 115.625 407.992C113.456 407.955 110.951 408.183 108.761 408.328C108.919 407.609 109.093 406.893 109.284 406.18C110.277 402.422 111.464 397.99 115.025 395.91Z" fill="#FEFEFD"/>
<path d="M44.5999 285.168C53.9539 284.861 59.7251 285.952 66.5986 293.091C66.0625 294.625 64.8469 300.094 64.3421 300.942C58.1092 292.351 54.4004 288.979 44.5999 285.168Z" fill="#FEFEFD"/>
<path d="M485.944 462.104L487.104 462.113L487.49 462.564C487.632 463.804 487.064 464.813 486.588 466.017C480.774 470.519 476.173 474.457 470.535 479.246L470.242 479.184C470.31 478.296 475.281 470.914 476.287 467.773C475.911 466.097 475.374 464.813 474.757 463.218C478.482 462.918 482.092 462.369 485.944 462.104Z" fill="#FEFEFD"/>
<path d="M133.049 468.476C134.621 470.115 136.068 473.775 135.44 476.08C135.051 477.456 134.097 478.601 132.814 479.234C129.443 480.912 127.434 478.533 126.105 475.774C125.824 474.805 125.732 474.734 125.875 473.713C126.561 472.698 126.128 473.034 127.114 472.537C128.769 473.454 128.475 477.055 130.692 476.731C131.525 476.098 131.488 476.064 131.99 475.197C132.095 473.793 130.672 472.216 129.793 470.957C130.805 470.136 131.999 469.272 133.049 468.476Z" fill="#FEFEFD"/>
<path d="M433.626 453.247L433.888 453.222C435.873 454.546 440.431 457.999 442.144 459.576C441.159 459.978 439.69 459.817 438.576 459.786C434.904 459.101 435.539 458.632 432.781 456.972C432.179 457.287 432.065 457.358 431.417 457.549L430.707 457.105C429.966 455.157 432.648 454.843 433.626 453.247Z" fill="#FEFEFD"/>
<path d="M546.843 396.052C549.765 395.765 559.604 395.043 560.113 398.944C559.551 399.129 556.41 398.049 555.11 397.799C551.623 397.595 541.986 398.45 540.183 397.447L540.254 397.018C541.405 396.469 545.359 396.203 546.843 396.052Z" fill="#FEFEFD"/>
<path d="M438.721 419.391C439.264 419.438 439.005 419.33 439.44 419.823C438.258 422.039 428.528 423.616 423.989 429.64L423.609 429.791C422.254 425.427 435.472 420.348 438.721 419.391Z" fill="#FEFEFD"/>
<path d="M493.541 460.906C496.022 462.397 494.057 465.165 492.875 466.699L492.622 466.748L492.282 466.458C492.279 464.622 492.804 462.576 493.541 460.906Z" fill="#FEFEFD"/>
<path d="M206.639 113.267C207.879 97.7877 205.253 87.4616 203.468 72.2069C201.373 54.3069 206.017 33.8524 214.536 18.119C216.994 13.6295 220.876 8.85637 224.306 5.09949C222.95 11.3368 221.756 16.5506 221.497 22.9511C221.02 34.7297 223.655 46.2927 230.068 56.26C235.864 65.2703 243.49 72.7269 246.276 83.382C247.977 89.8874 248.872 99.3424 256.644 101.379C263.096 102.987 267.072 97.1996 267.975 91.6347C269.449 82.5494 266.757 73.2811 262.776 65.2243C285.358 80.7818 299.282 102.326 300.821 130.212C299.35 129.372 297.969 128.392 296.452 127.554C289.409 123.662 280.804 122.297 272.81 123.469C265.695 116.027 259.644 110.368 249.361 107.571C233.646 103.295 220.609 105.653 206.639 113.267Z" fill="#C0412A"/>
<path d="M493.844 302.514L495.041 302.425L495.334 302.797C494.884 304.366 490.974 308.303 489.943 310.64C486.076 319.404 488.385 328.449 495.294 334.929C501.37 340.697 507.965 345.539 510.317 354.034C514.674 369.763 505.497 381.4 490.856 385.829C491.001 385.097 491.93 383.727 492.353 383.064C508.484 357.784 473.945 354.071 470.989 332.288C468.733 315.676 477.296 305.348 493.844 302.514Z" fill="black"/>
<path d="M488.934 305.854L489.23 305.885C489.455 306.504 487.172 310.498 486.734 311.442C485.731 313.584 485.067 315.867 484.768 318.213C483.073 332.056 495.198 339.342 502.941 348.6C511.962 359.385 507.894 372.726 497.353 380.703L496.988 380.527C501.534 369.575 499.547 360.308 490.86 352.269C484.737 346.603 478.071 342.693 475.207 334.386C473.204 328.412 473.698 321.885 476.58 316.284C479.287 310.939 483.336 307.696 488.934 305.854Z" fill="#FEFEFD"/>
<path d="M457.012 320.552L457.41 321.086C448.862 343.508 465.693 340.879 475.556 354.429C483.407 365.218 478.66 377.787 467.964 385.085C467.683 385.091 467.878 385.103 467.421 384.881C467.952 383.465 469.31 382.246 470.22 380.916C472.871 376.916 475.065 371.751 475.176 366.906C475.562 350.038 450.929 349.399 451.473 332.772C451.63 327.93 453.485 323.854 457.012 320.552Z" fill="black"/>
<path d="M517.942 319.956L518.384 320.274C518.402 321.126 515.727 327.152 515.316 329.498C512.585 341.65 524.472 344.489 529.839 352.537C535.848 361.542 529.33 374.67 521.019 379.903C520.806 380.008 520.964 379.95 520.513 379.879C520.67 378.802 522.593 376.685 523.303 375.506C525.568 371.747 527.265 367.847 527.466 363.459C527.879 354.478 520.914 351.223 515.541 345.693C512.739 342.811 510.693 338.274 511.095 334.21C511.672 328.328 513.511 323.847 517.942 319.956Z" fill="black"/>
<path d="M249.688 541.471C253.33 541.125 256.57 543.782 256.942 547.421C257.313 551.062 254.676 554.318 251.039 554.716C247.367 555.114 244.073 552.448 243.698 548.772C243.323 545.1 246.011 541.823 249.688 541.471Z" fill="black"/>
<path d="M248.991 544.619C250.234 544.109 251.655 544.316 252.704 545.152C253.753 545.992 254.267 547.331 254.046 548.655C253.826 549.979 252.905 551.081 251.641 551.534C249.746 552.213 247.655 551.253 246.935 549.371C246.214 547.492 247.128 545.381 248.991 544.619Z" fill="#FEFEFD"/>
<path d="M235.828 453.028C239.387 452.34 242.839 454.633 243.585 458.181C244.331 461.727 242.095 465.217 238.562 466.023C236.223 466.554 233.779 465.785 232.168 464.008C230.557 462.23 230.03 459.721 230.788 457.447C231.547 455.173 233.473 453.482 235.828 453.028Z" fill="black"/>
<path d="M236.388 455.395C241.136 456.355 242.183 461.051 237.604 463.307C232.711 462.492 232.676 458.221 236.388 455.395Z" fill="#FEFEFD"/>
<path d="M288.858 448.865C292.435 448.174 295.899 450.498 296.617 454.068C297.336 457.638 295.04 461.122 291.475 461.866C287.87 462.622 284.341 460.295 283.615 456.685C282.888 453.074 285.243 449.566 288.858 448.865Z" fill="black"/>
<path d="M289.543 451.781C291.434 451.426 293.254 452.67 293.612 454.559C293.971 456.447 292.732 458.271 290.844 458.632C288.949 458.996 287.12 457.752 286.76 455.858C286.401 453.963 287.648 452.136 289.543 451.781Z" fill="#FEFEFD"/>
<path d="M242.569 494.731C245.788 494.309 248.449 494.898 250.158 497.956C251.064 499.607 251.275 501.548 250.744 503.353C250.044 505.693 248.671 506.785 246.64 507.887C245.442 508.075 244.248 508.18 243.058 507.853C241.399 507.387 239.987 506.291 239.121 504.801C238.186 503.153 237.958 501.193 238.488 499.373C239.189 496.925 240.454 495.87 242.569 494.731Z" fill="black"/>
<path d="M243.648 497.447C248.395 497.351 249.471 501.786 246.091 504.912C240.605 505.285 239.601 500.493 243.648 497.447Z" fill="#FEFEFD"/>
<path d="M250.214 588.757C253.7 587.738 257.35 589.753 258.346 593.247C259.341 596.74 257.301 600.375 253.801 601.347C250.335 602.307 246.742 600.292 245.757 596.833C244.771 593.373 246.762 589.766 250.214 588.757Z" fill="black"/>
<path d="M250.918 591.506C252.844 590.88 254.911 591.938 255.533 593.864C256.154 595.793 255.094 597.857 253.166 598.477C251.242 599.095 249.181 598.036 248.56 596.114C247.94 594.191 248.995 592.127 250.918 591.506Z" fill="#FEFEFD"/>
<path d="M302.077 536.987C310.867 536.114 313.737 546.257 306.094 550.019C297.172 551.405 294.918 540.292 302.077 536.987Z" fill="black"/>
<path d="M302.889 540.058C304.713 539.32 306.789 540.19 307.542 542.008C308.294 543.823 307.442 545.909 305.631 546.677C303.799 547.455 301.685 546.588 300.923 544.748C300.161 542.909 301.044 540.805 302.889 540.058Z" fill="#FEFEFD"/>
<path d="M130.117 410.954C132.054 411.63 135.443 414.716 136.955 416.129C146.83 425.36 153.487 443.267 153.393 456.845C152.449 456.123 150.709 446.711 149.74 444.159C147.046 437.068 144.202 431.84 140.229 425.43C137.885 421.647 130.803 414.583 130.117 410.954Z" fill="black"/>
<path d="M296.084 493.759C299.366 492.63 302.948 494.343 304.126 497.608C305.306 500.872 303.645 504.48 300.398 505.705C298.254 506.517 295.841 506.109 294.081 504.64C292.322 503.171 291.491 500.869 291.906 498.617C292.321 496.361 293.917 494.506 296.084 493.759Z" fill="black"/>
<path d="M296.886 496.466C298.029 496.021 299.324 496.231 300.269 497.015C301.214 497.796 301.66 499.03 301.434 500.237C301.208 501.443 300.345 502.431 299.181 502.82C297.442 503.4 295.558 502.486 294.935 500.761C294.312 499.039 295.178 497.132 296.886 496.466Z" fill="#FEFEFD"/>
<path d="M431.821 402.138C433.055 407.001 433.898 411.55 434.805 416.487C433.506 416.972 427.902 419.468 427.485 419.564C427.948 415.864 430.537 405.662 431.821 402.138Z" fill="#C0412A"/>
</svg>
